<mxfile host="app.diagrams.net" modified="2023-05-11T14:15:54.808Z" agent="Mozilla/5.0 (Windows NT 10.0; Win64; x64) AppleWebKit/537.36 (KHTML, like Gecko) Chrome/112.0.0.0 Safari/537.36" version="21.2.9" etag="KZb85m5AUG0ELX5cFiBw" type="github">
  <diagram name="페이지-1" id="u5kPiQK0h3_c7oDiRtXo">
    <mxGraphModel>
      <root>
        <mxCell id="0" />
        <mxCell id="1" parent="0" />
      </root>
    </mxGraphModel>
  </diagram>
</mxfile>
